<svg width="165" height="45" viewBox="0 0 165 45" fill="none" xmlns="http://www.w3.org/2000/svg">
<path d="M35.4083 35.4639C35.545 35.4293 35.6828 35.3934 35.8225 35.355C40.4511 34.083 40.3997 30.0201 39.5662 27.9908C39.065 26.7704 38.1142 25.4688 38.0589 24.0829C38.0217 23.1516 39.5827 21.1602 36.8436 22.5681C34.1045 23.9759 36.4419 25.3411 34.9382 27.8347C33.8592 29.6237 30.2408 28.9093 30.1466 24.9999C29.1028 26.0453 28.4783 27.3761 28.4783 27.3761C28.4783 27.3761 28.1697 25.9441 29.3792 23.505C30.1595 21.9319 31.0196 21.0812 31.9658 19.4495C34.3242 14.8913 34.8876 9.41154 31.0767 5.03174C27.0566 0.41131 22.082 0 19.8747 0C17.6677 0 12.6928 0.41131 8.67289 5.03174C4.30766 10.0485 5.6805 16.51 8.91788 21.3748C9.8364 23.7364 10.0181 25.5941 9.77935 26.9962C11.2646 25.9085 12.4267 24.1745 12.4267 24.1745C12.4267 24.1745 12.2398 26.0072 10.9792 27.7226C9.7184 29.438 7.52976 30.1778 7.52976 30.1778C6.56931 30.5652 5.55317 30.3865 4.9895 29.7087C3.03498 27.3597 4.81428 24.5509 2.08539 23.9066C-0.183218 23.371 1.31408 24.799 1.25771 26.3608C1.22953 27.141 0.47706 29.7979 0.146836 31.137C-0.331267 33.0763 0.0884318 38.225 5.56522 39.0043C4.1119 33.404 9.6493 31.4595 11.6952 30.9408C9.0116 31.6335 6.78578 33.5847 7.03875 37.2641C7.08612 37.9533 7.24249 38.5481 7.47543 39.0618C8.95252 42.3254 13.6191 42.2138 14.6045 40.5846C15.6317 38.8866 12.865 40.841 11.7773 39.107C11.3994 38.5048 11.0626 36.4199 15.8061 37.6096C16.6083 37.8106 17.3023 37.7263 17.8628 37.6274C17.5414 36.5269 16.8655 35.288 15.4713 34.3949C15.4713 34.3949 19.1922 34.3949 19.8704 37.8631C19.8704 37.8631 19.8706 37.8647 19.871 37.8651C20.7552 39.677 19.6699 43.9957 24.1513 44C26.5812 44.0025 27.1427 41.7927 26.8647 41.4411C26.6511 41.1713 26.3681 41.2344 26.0277 41.6163C25.6999 41.9842 25.1858 42.1998 24.8454 42.0102C23.9569 41.5151 24.0623 40.7797 25.5496 38.4531C26.7851 36.5204 26.5809 34.8503 26.3024 33.9018C25.533 31.2825 22.5932 30.1799 22.5932 30.1799C27.9749 30.9789 28.2878 34.3796 27.9199 36.5121C29.2695 36.9221 29.7247 37.5787 30.4267 38.3315C32.0414 40.0629 33.5575 41.3403 35.7585 39.935C37.3815 38.8988 36.4845 37.7701 36.4845 37.7701C36.4845 37.7701 35.4409 39.1072 34.369 37.7333C33.605 36.7541 34.0889 34.273 31.7532 31.6759C30.9364 30.7678 30.0349 30.1825 29.1125 29.8409C30.7884 30.0457 34.22 31.0134 35.4083 35.4639ZM17.3512 16.5008C16.8242 16.5008 16.3971 16.0319 16.3971 15.4538C16.3971 14.8753 16.8242 14.4067 17.3512 14.4067C17.8784 14.4067 18.3054 14.8753 18.3054 15.4538C18.3054 16.0319 17.8786 16.5008 17.3512 16.5008ZM22.546 16.5065C22.0368 16.5065 21.6246 16.0538 21.6246 15.4954C21.6246 14.9369 22.0368 14.4842 22.546 14.4842C23.0549 14.4842 23.4674 14.9369 23.4674 15.4954C23.4674 16.0538 23.0549 16.5065 22.546 16.5065Z" fill="url(#paint0_linear_4206_177)"/>
<path d="M56.2655 21.0133C54.066 20.6197 51.8202 19.9946 51.8202 18.8138C51.8202 17.8414 52.9084 17.0773 54.2975 17.0773C55.432 17.0773 56.4507 17.8645 56.7517 18.9064H60.433C60.433 15.966 57.6315 13.7433 54.2975 13.7433C50.5931 13.7433 48.2315 15.8965 48.2315 18.9527C48.2315 21.3374 50.5005 22.6571 53.2094 23.2823C55.6636 23.8611 57.1453 24.2084 57.1453 25.5975C57.1453 27.0099 56.0108 27.8202 54.2975 27.8202C52.8158 27.8202 51.7739 26.7089 51.6118 25.2734H48C48 28.4222 50.7089 31.1542 54.2975 31.1542C58.2335 31.1542 60.734 28.7926 60.734 25.5975C60.734 22.9581 58.5345 21.43 56.2655 21.0133Z" fill="#D9D9D9"/>
<path d="M69.3571 17.9108C65.5601 17.9108 62.4808 20.8744 62.4808 24.5325V34.9512H65.9537V29.765C66.8335 30.6217 68.0374 31.1542 69.3571 31.1542C73.1542 31.1542 76.2335 28.1906 76.2335 24.5325C76.2335 20.8744 73.1542 17.9108 69.3571 17.9108ZM69.2877 28.0054C67.366 28.0054 65.8148 26.4542 65.8148 24.5325C65.8148 22.6108 67.366 21.0596 69.2877 21.0596C71.2094 21.0596 72.7606 22.6108 72.7606 24.5325C72.7606 26.4542 71.2094 28.0054 69.2877 28.0054Z" fill="#D9D9D9"/>
<path d="M79.8021 13.0488C78.6908 13.0488 77.811 13.9517 77.811 15.0399C77.811 16.1512 78.6908 17.031 79.8021 17.031C80.8903 17.031 81.7932 16.1512 81.7932 15.0399C81.7932 13.9517 80.8903 13.0488 79.8021 13.0488ZM78.0656 30.7838H81.5385V18.2813H78.0656V30.7838Z" fill="#D9D9D9"/>
<path d="M83.9367 24.5325V30.7838H87.4096V24.5325C87.4096 22.6108 88.9608 21.0596 90.8825 21.0596V17.9108H90.4194C86.5761 17.9108 83.9367 20.8744 83.9367 24.5325Z" fill="#D9D9D9"/>
<path d="M105.5 24.5325C105.5 20.8744 102.421 17.9108 98.6005 17.9108C94.7803 17.9108 91.701 20.8744 91.701 24.5325C91.701 28.1906 94.7803 31.1542 98.6005 31.1542C102.421 31.1542 105.5 28.1906 105.5 24.5325ZM102.027 24.5325C102.027 26.4542 100.499 28.0054 98.6005 28.0054C96.702 28.0054 95.1739 26.4542 95.1739 24.5325C95.1739 22.6108 96.702 21.0596 98.6005 21.0596C100.499 21.0596 102.027 22.6108 102.027 24.5325Z" fill="#D9D9D9"/>
<path d="M123.699 26.6857H119.99C119.117 28.0498 117.603 28.945 115.855 28.945C113.127 28.945 110.91 26.7283 110.91 24C110.91 21.2717 113.127 19.055 115.855 19.055C117.625 19.055 119.159 19.9715 120.033 21.357H123.742C122.612 18.2237 119.5 15.9856 115.855 15.9856C111.23 15.9856 107.5 19.5665 107.5 24C107.5 28.4335 111.23 32.0144 115.855 32.0144C119.479 32.0144 122.548 29.7976 123.699 26.6857Z" fill="#CEFC00"/>
<path d="M137.21 25.9183C137.21 22.5506 134.375 19.8223 130.858 19.8223C127.341 19.8223 124.506 22.5506 124.506 25.9183C124.506 29.2861 127.341 32.0144 130.858 32.0144C134.375 32.0144 137.21 29.2861 137.21 25.9183ZM134.012 25.9183C134.012 27.6875 132.606 29.1156 130.858 29.1156C129.11 29.1156 127.703 27.6875 127.703 25.9183C127.703 24.1492 129.11 22.7211 130.858 22.7211C132.606 22.7211 134.012 24.1492 134.012 25.9183Z" fill="#CEFC00"/>
<path d="M147.521 16.3267V20.9946C146.668 20.2699 145.581 19.8223 144.366 19.8223C140.892 19.8223 138.057 22.5506 138.057 25.9183C138.057 29.2861 140.892 32.0144 144.387 32.0144C145.751 32.0144 146.966 31.3536 147.734 30.3092V31.6733H150.718V16.3267H147.521ZM141.254 25.9183C141.254 24.1492 142.682 22.7211 144.451 22.7211C146.22 22.7211 147.648 24.1492 147.648 25.9183C147.648 27.6875 146.22 29.1156 144.451 29.1156C142.682 29.1156 141.254 27.6875 141.254 25.9183Z" fill="#CEFC00"/>
<path d="M158.606 19.8223C155.067 19.8223 152.211 22.5506 152.211 25.9183C152.211 29.2861 155.067 32.0144 158.606 32.0144C161.419 32.0144 163.806 30.2879 164.659 27.8793H161.121C160.545 28.6253 159.629 29.1156 158.606 29.1156C157.22 29.1156 156.069 28.2416 155.6 27.0267H164.893C164.957 26.6643 165 26.302 165 25.9183C165 22.5506 162.144 19.8223 158.606 19.8223ZM155.6 24.81C156.069 23.595 157.22 22.7211 158.606 22.7211C159.97 22.7211 161.142 23.595 161.611 24.81H155.6Z" fill="#CEFC00"/>
<path d="M95.3324 38.56L93.5324 44.056H92.6364L91.2844 39.744L89.9324 44.056H89.0364L87.3324 38.56H88.2604L89.5004 43.04L90.8684 38.56H91.7084L93.0924 43.048L94.3964 38.56H95.3324Z" fill="#D9D9D9"/>
<path d="M99.7876 43.336V44H96.3636V38.56H99.6276V39.224H97.2756V40.792H99.3076V41.456H97.2756V43.336H99.7876Z" fill="#D9D9D9"/>
<path d="M108.483 38.56V44H107.587V42.216L107.643 39.984L106.107 42.352H105.459L103.899 39.96L103.971 42.216V44H103.075V38.56H103.907L105.779 41.424L107.651 38.56H108.483Z" fill="#D9D9D9"/>
<path d="M113.032 42.416H110.936L110.368 44H109.456L111.56 38.488H112.416L114.536 44H113.6L113.032 42.416ZM112.8 41.76L111.984 39.48L111.168 41.76H112.8Z" fill="#D9D9D9"/>
<path d="M115.504 38.56H116.416V44H115.504V38.56ZM120.064 44H118.952L116.496 41.16V41L118.712 38.56H119.768L117.408 41.056L120.064 44Z" fill="#D9D9D9"/>
<path d="M124.506 43.336V44H121.082V38.56H124.346V39.224H121.994V40.792H124.026V41.456H121.994V43.336H124.506Z" fill="#D9D9D9"/>
<path d="M129.745 38.56C130.417 38.56 130.921 38.704 131.257 38.992C131.593 39.2747 131.761 39.68 131.761 40.208C131.761 40.7467 131.593 41.1573 131.257 41.44C130.927 41.7227 130.423 41.864 129.745 41.864H128.705V44H127.793V38.56H129.745ZM129.745 41.2C130.119 41.1947 130.396 41.112 130.577 40.952C130.759 40.792 130.849 40.544 130.849 40.208C130.849 39.8933 130.756 39.6507 130.569 39.48C130.383 39.3093 130.108 39.224 129.745 39.224H128.705V41.2H129.745Z" fill="#D9D9D9"/>
<path d="M135.16 44.12C134.579 44.12 134.08 43.9947 133.664 43.744C133.253 43.488 132.944 43.1467 132.736 42.72C132.528 42.288 132.424 41.8107 132.424 41.288C132.424 40.7653 132.528 40.2907 132.736 39.864C132.944 39.432 133.253 39.0907 133.664 38.84C134.08 38.584 134.579 38.456 135.16 38.456C135.741 38.456 136.237 38.584 136.648 38.84C137.064 39.0907 137.376 39.432 137.584 39.864C137.792 40.2907 137.896 40.7627 137.896 41.28C137.896 41.808 137.792 42.288 137.584 42.72C137.376 43.1467 137.064 43.488 136.648 43.744C136.237 43.9947 135.741 44.12 135.16 44.12ZM135.16 43.432C135.544 43.432 135.872 43.3387 136.144 43.152C136.416 42.9653 136.621 42.712 136.76 42.392C136.904 42.0667 136.976 41.6987 136.976 41.288C136.976 40.8827 136.904 40.5173 136.76 40.192C136.621 39.8667 136.413 39.6107 136.136 39.424C135.864 39.2373 135.539 39.144 135.16 39.144C134.776 39.144 134.445 39.2373 134.168 39.424C133.896 39.6107 133.688 39.8667 133.544 40.192C133.405 40.5173 133.336 40.8827 133.336 41.288C133.336 41.6987 133.405 42.0667 133.544 42.392C133.688 42.712 133.896 42.9653 134.168 43.152C134.445 43.3387 134.776 43.432 135.16 43.432Z" fill="#D9D9D9"/>
<path d="M140.592 44.12C139.851 44.12 139.227 43.96 138.72 43.64L138.976 42.992C139.462 43.2853 140 43.432 140.592 43.432C140.939 43.432 141.224 43.3547 141.448 43.2C141.678 43.0453 141.792 42.8293 141.792 42.552C141.792 42.3813 141.736 42.2373 141.624 42.12C141.518 42.0027 141.382 41.9067 141.216 41.832C141.056 41.752 140.838 41.6613 140.56 41.56C140.214 41.4373 139.931 41.3227 139.712 41.216C139.494 41.104 139.307 40.9493 139.152 40.752C138.998 40.5547 138.92 40.3067 138.92 40.008C138.92 39.512 139.099 39.1307 139.456 38.864C139.814 38.592 140.28 38.456 140.856 38.456C141.48 38.456 142.032 38.6133 142.512 38.928L142.248 39.568C141.8 39.2853 141.344 39.144 140.88 39.144C140.566 39.144 140.31 39.2133 140.112 39.352C139.915 39.4907 139.816 39.6933 139.816 39.96C139.816 40.12 139.867 40.256 139.968 40.368C140.075 40.48 140.208 40.5733 140.368 40.648C140.528 40.7227 140.747 40.8107 141.024 40.912C141.382 41.0453 141.67 41.168 141.888 41.28C142.107 41.392 142.294 41.5493 142.448 41.752C142.608 41.9493 142.688 42.2 142.688 42.504C142.688 43.0053 142.499 43.4 142.12 43.688C141.747 43.976 141.238 44.12 140.592 44.12Z" fill="#D9D9D9"/>
<path d="M145.366 44.12C144.624 44.12 144 43.96 143.494 43.64L143.75 42.992C144.235 43.2853 144.774 43.432 145.366 43.432C145.712 43.432 145.998 43.3547 146.222 43.2C146.451 43.0453 146.566 42.8293 146.566 42.552C146.566 42.3813 146.51 42.2373 146.398 42.12C146.291 42.0027 146.155 41.9067 145.99 41.832C145.83 41.752 145.611 41.6613 145.334 41.56C144.987 41.4373 144.704 41.3227 144.486 41.216C144.267 41.104 144.08 40.9493 143.926 40.752C143.771 40.5547 143.694 40.3067 143.694 40.008C143.694 39.512 143.872 39.1307 144.23 38.864C144.587 38.592 145.054 38.456 145.63 38.456C146.254 38.456 146.806 38.6133 147.286 38.928L147.022 39.568C146.574 39.2853 146.118 39.144 145.654 39.144C145.339 39.144 145.083 39.2133 144.886 39.352C144.688 39.4907 144.59 39.6933 144.59 39.96C144.59 40.12 144.64 40.256 144.742 40.368C144.848 40.48 144.982 40.5733 145.142 40.648C145.302 40.7227 145.52 40.8107 145.798 40.912C146.155 41.0453 146.443 41.168 146.662 41.28C146.88 41.392 147.067 41.5493 147.222 41.752C147.382 41.9493 147.462 42.2 147.462 42.504C147.462 43.0053 147.272 43.4 146.894 43.688C146.52 43.976 146.011 44.12 145.366 44.12Z" fill="#D9D9D9"/>
<path d="M148.715 38.56H149.627V44H148.715V38.56Z" fill="#D9D9D9"/>
<path d="M154.093 41.128C154.487 41.208 154.786 41.3707 154.989 41.616C155.191 41.856 155.293 42.152 155.293 42.504C155.293 42.968 155.117 43.3333 154.765 43.6C154.413 43.8667 153.903 44 153.237 44H151.325V38.56H153.237C153.829 38.56 154.279 38.6773 154.589 38.912C154.898 39.1467 155.053 39.4853 155.053 39.928C155.053 40.216 154.97 40.4667 154.805 40.68C154.645 40.8933 154.407 41.0427 154.093 41.128ZM152.237 39.224V40.8H153.237C153.525 40.8 153.746 40.7333 153.901 40.6C154.061 40.4613 154.141 40.2667 154.141 40.016C154.141 39.488 153.839 39.224 153.237 39.224H152.237ZM153.237 43.336C153.599 43.336 153.879 43.256 154.077 43.096C154.279 42.9307 154.381 42.6987 154.381 42.4C154.381 42.0853 154.282 41.8507 154.085 41.696C153.893 41.5413 153.61 41.464 153.237 41.464H152.237V43.336H153.237Z" fill="#D9D9D9"/>
<path d="M159.936 43.336V44H156.512V38.56H157.424V43.336H159.936Z" fill="#D9D9D9"/>
<path d="M164.413 43.336V44H160.989V38.56H164.253V39.224H161.901V40.792H163.933V41.456H161.901V43.336H164.413Z" fill="#D9D9D9"/>
<defs>
<linearGradient id="paint0_linear_4206_177" x1="82.5" y1="0" x2="82.5" y2="44.12" gradientUnits="userSpaceOnUse">
<stop offset="0.899038" stop-color="#CEFC00"/>
</linearGradient>
</defs>
</svg>
