<svg width="718" height="481" viewBox="0 0 718 481" fill="none" xmlns="http://www.w3.org/2000/svg">
<g opacity="0.5" clip-path="url(#clip0_4298_901)">
<mask id="mask0_4298_901" style="mask-type:alpha" maskUnits="userSpaceOnUse" x="-67" y="0" width="785" height="481">
<path d="M718 0H-66.1125V480.561H718V0Z" fill="url(#paint0_linear_4298_901)"/>
</mask>
<g mask="url(#mask0_4298_901)">
<path opacity="0.6" d="M516.951 661.741C519.871 659.958 514.553 644.811 501.573 617.793C488.592 590.775 468.39 552.852 443.005 507.818C417.621 462.785 387.944 412.248 356.957 361.294C325.956 310.316 294.742 260.729 266.462 217.465C238.158 174.215 213.775 138.838 195.768 114.902C177.748 90.9417 166.737 79.2787 163.817 81.061M559.586 631.001C571.713 620.726 573.505 598.634 564.8 566.948C556.07 535.276 537.124 495.094 509.88 450.49C482.637 405.886 448.02 358.414 409.545 312.865C371.057 267.292 330.071 225.238 290.702 190.91C251.307 156.595 214.921 131.202 185.176 117.325C155.431 103.448 133.378 101.553 121.238 111.804M601.179 589.045C618.66 568.029 623.762 537.35 616.021 500.069C608.279 462.789 587.913 420.215 557.007 376.629C526.102 333.043 485.733 289.979 439.953 251.769C394.173 213.56 344.596 181.567 296.234 158.984C247.847 136.414 202.376 124.029 164.337 123.1C126.312 122.196 97.0884 132.751 79.6308 153.754M641.405 528.594C658.443 495.892 661.279 456.484 649.61 414.355C637.941 372.226 612.181 328.865 574.954 288.604C537.703 248.356 490.29 212.646 437.459 185.039C384.627 157.433 328.224 138.972 273.958 131.412C219.668 123.866 169.42 127.564 128.257 142.086C87.0944 156.609 56.4517 181.508 39.4136 214.21M673.251 438.194C681.872 395.124 674.96 349.713 653.212 306.54C631.464 263.366 595.653 223.939 549.359 192.252C503.065 160.564 447.939 137.702 389.515 125.965C331.089 114.228 271.424 114.062 216.51 125.446C161.596 136.829 113.382 159.376 76.705 190.813C40.0283 222.25 16.173 261.51 7.55488 304.581M674.377 310.497C665.797 263.279 641.93 219.724 605.169 184.198C568.432 148.66 520.098 122.402 465.016 108.043C409.948 93.7073 350.094 91.7691 291.47 102.479C232.834 113.164 177.499 136.108 131.037 168.977C84.574 201.847 48.5615 243.478 26.6989 289.712C4.83849 335.946 -2.1788 385.123 6.40183 432.341M615.045 171.599C571.797 111.999 501.401 75.8657 419.308 71.1811C337.215 66.4964 250.182 93.6414 177.345 146.618C104.508 199.595 51.8134 274.111 30.8839 353.713C9.96708 433.339 22.4872 511.553 65.7108 571.166M510.043 76.9233C449.648 42.0363 373.843 39.5824 299.317 70.144C224.79 100.706 157.647 161.717 112.669 239.834C67.6759 317.926 48.5219 406.689 59.4362 486.592C70.3505 566.495 110.403 630.989 170.798 665.876M407.117 38.07C347.163 26.0379 282.642 49.6041 227.73 103.622C172.819 157.639 132.048 237.616 114.346 326.018C96.6435 414.42 103.512 503.986 133.389 574.998C163.266 646.01 213.739 692.683 273.694 704.715M325.335 31.7844C276.998 33.9415 232.218 71.7931 200.855 136.993C169.493 202.193 154.14 289.447 158.108 379.512C162.113 469.588 185.132 555.105 222.15 617.278C259.168 679.45 307.104 713.184 355.441 711.023M261.65 40.7328C230.193 48.2347 208.337 90.2978 200.864 157.612C193.391 224.925 200.923 312.022 221.824 399.735C242.711 487.423 275.252 568.568 312.257 625.275C349.263 681.982 387.722 709.627 419.166 702.099M209.49 57.7329C196.496 63.1776 197.851 101.432 213.217 164.096C228.583 226.759 256.708 308.704 291.426 391.883C326.144 475.062 364.588 552.701 398.348 607.681C432.07 662.65 458.316 690.5 471.311 685.056M456.637 690.833C489.773 678.738 521.949 660.844 549.718 639.071M332.845 711.278C385.131 712.461 446.354 695.438 502.717 664.094C559.081 632.75 605.838 589.695 632.513 544.634M251.943 699.631C318.433 717.604 411.299 699.659 496.221 652.434C581.143 605.209 645.446 535.756 665.359 469.733M184.701 673.484C219.752 691.601 267.319 697.508 321.088 690.421C374.858 683.333 432.358 663.607 485.904 633.831C539.451 604.053 586.581 565.626 620.999 523.642C655.431 481.681 675.569 438.124 678.741 398.751M127.716 636.383C161.969 663.947 214.623 676.221 277.137 671.208C339.649 666.194 408.341 644.191 472.039 608.768C535.736 573.346 590.7 526.586 627.996 476.097C665.292 425.607 682.722 374.36 677.464 330.671M80.5454 590.164C111.366 626.893 166.6 645.941 235.647 643.657C304.707 641.398 382.775 617.968 454.875 577.873C526.976 537.779 588.105 483.803 626.527 426.291C664.949 368.78 678.002 311.758 663.174 266.168M43.607 536.443C60.2073 566.379 90.2182 588.126 130.626 599.574C171.059 611.008 220.439 611.706 273.853 601.571C327.267 591.436 382.803 570.861 434.917 541.881C487.031 512.901 533.829 476.568 570.656 436.521C607.482 396.473 633.018 354.114 644.676 313.713C656.358 273.3 653.751 236.282 637.165 206.369M43.607 536.443C87.313 615.26 160.516 673.474 247.084 698.26C289.947 710.533 334.805 714.229 379.095 709.138C423.385 704.048 466.24 690.271 505.212 668.593C583.918 624.825 642.049 551.517 666.814 464.851C691.566 378.16 680.907 285.198 637.189 206.355C593.483 127.539 520.279 69.3251 433.736 44.5249C347.168 19.7381 254.337 30.4108 175.607 74.1924C96.9017 117.96 38.7713 191.267 14.0056 277.934C-10.7453 364.625 -0.0990546 457.626 43.607 536.443ZM17.597 476.644C28.9272 511.516 56.0499 538.083 95.8498 553.304C135.637 568.501 186.458 571.74 242.488 562.599C298.532 553.484 357.514 532.362 412.639 501.706C467.789 471.038 516.848 432.079 554.202 389.257C591.555 346.436 615.713 301.533 623.839 259.692C631.99 217.837 623.784 180.751 600.226 152.648M3.36715 412.138C8.07836 451.17 30.6568 482.204 68.1328 501.2C105.623 520.22 156.293 526.279 213.47 518.633C270.646 510.987 331.683 489.962 388.582 458.322C445.48 426.681 495.567 385.909 532.274 341.347C568.98 296.786 590.629 250.51 594.325 208.588C598.022 166.664 583.651 131.065 553.069 106.454M2.03017 344.061C-1.37237 386.233 14.8849 421.389 48.3246 444.22C81.7643 467.051 130.571 476.342 187.411 470.665C244.25 464.989 306.002 444.681 363.362 412.783C420.721 380.886 470.604 339.115 505.438 293.812C540.296 248.496 558.223 202.096 556.547 161.601C554.871 121.106 533.639 88.7181 496.119 69.3017M15.4126 273.079C2.12215 317.187 9.79022 356.102 37.0721 382.96C64.3575 409.819 109.497 422.866 164.509 419.797C219.497 416.741 280.796 397.735 337.524 366.188C394.253 334.642 442.743 292.595 474.425 247.454C506.084 202.327 518.886 157.058 510.543 119.666C502.2 82.2738 473.251 55.1635 428.853 43.1676M48.3069 198.151C22.1094 242.469 17.4987 285.092 35.5145 316.723C53.5309 348.353 92.697 366.441 144.447 367C196.21 367.583 256.378 350.605 311.794 319.788C367.211 288.971 413.408 246.799 440.278 202.49C467.147 158.18 472.532 115.349 455.245 83.313C437.957 51.2773 399.39 32.6656 347.975 31.5074M131.09 103.752C94.0014 132.84 66.972 167.121 54.9514 200.278C42.9555 233.421 46.7916 263.201 65.7978 284.069C84.8032 304.935 117.649 315.465 158.284 313.741C198.919 312.017 244.56 298.122 286.742 274.665C328.948 251.195 364.829 219.755 387.77 186.124C410.712 152.494 419.15 119.007 411.509 91.8201C403.868 64.6334 380.677 45.6158 346.217 38.3066C311.782 30.9832 268.411 35.852 224.148 52.0027M85.3684 229.404C96.7496 249.929 121.879 261.727 155.186 262.201C188.516 262.661 227.299 251.753 263.021 231.888C298.767 212.01 328.515 184.808 345.72 156.246C362.949 127.669 366.222 100.109 354.827 79.5592C343.445 59.0342 318.316 47.2359 285.01 46.762C251.679 46.3015 212.897 57.2101 177.174 77.0749C141.452 96.9397 111.68 124.155 94.4753 152.717C77.2702 181.28 73.9872 208.879 85.3684 229.404ZM120.296 190.859C128.049 204.842 145.145 212.866 167.813 213.179C190.481 213.491 216.907 206.083 241.215 192.564C265.524 179.047 285.787 160.524 297.492 141.066C309.21 121.632 311.444 102.857 303.691 88.8732C295.937 74.8902 278.841 66.8655 256.173 66.5531C233.505 66.2407 207.079 73.6491 182.771 87.1667C158.463 100.684 138.2 119.207 126.495 138.666C114.777 158.1 112.541 176.875 120.296 190.859ZM160.637 156.748C168.808 171.485 196.217 171.866 221.861 157.605C247.506 143.345 261.672 119.844 253.5 105.107C245.328 90.3693 217.919 89.9889 192.275 104.25C166.63 118.51 152.465 142.011 160.637 156.748Z" stroke="#B2B2B2" stroke-opacity="0.8" stroke-width="1.396"/>
<path d="M455.588 -61.0607C402.704 -43.2992 362.092 -1.69727 340.71 31.4931C528.016 31.8984 679.769 183.917 680.093 371.508C718.197 356.508 746.169 335.156 763.966 309.131C781.849 282.981 789.478 252.084 786.764 218.104C781.335 150.126 734.506 69.7968 645.534 -9.40106C574.428 -72.6968 508.77 -78.9222 455.588 -61.0607Z" fill="url(#paint1_radial_4298_901)" fill-opacity="0.08" stroke="url(#paint2_radial_4298_901)" stroke-opacity="0.8" stroke-width="1.159"/>
</g>
</g>
<defs>
<linearGradient id="paint0_linear_4298_901" x1="402.405" y1="-54.365" x2="229.873" y2="263.678" gradientUnits="userSpaceOnUse">
<stop stop-color="white"/>
<stop offset="1" stop-color="white" stop-opacity="0"/>
</linearGradient>
<radialGradient id="paint1_radial_4298_901" cx="0" cy="0" r="1" gradientTransform="matrix(109.429 -119.293 -119.332 -109.776 506.815 176.229)" gradientUnits="userSpaceOnUse">
<stop stop-color="white"/>
<stop offset="1" stop-color="#D9D9D9" stop-opacity="0"/>
</radialGradient>
<radialGradient id="paint2_radial_4298_901" cx="0" cy="0" r="1" gradientTransform="matrix(39.0927 -88.0857 -181.116 -80.6086 550.794 133.584)" gradientUnits="userSpaceOnUse">
<stop stop-color="#D9D9D9"/>
<stop offset="1" stop-color="#D9D9D9" stop-opacity="0"/>
</radialGradient>
<clipPath id="clip0_4298_901">
<rect width="718" height="481" fill="white" transform="matrix(-1 0 0 1 718 0)"/>
</clipPath>
</defs>
</svg>
